{"title":"Bad Girls (1994) Madeleine Stowe (Quality DVDrip)[opt.SWESUBS]","uid":4338696,"size":731369073,"categoryP":"video","categoryS":"movies","magnet":"?xt=urn:btih:527240af6d3ae7c7e8b0e6fd4b6d7244cb9d8699&amp;dn=Bad+Girls+%281994%29+Madeleine+Stowe+%28Quality+DVDrip%29%5Bopt.SWESUBS%5D&amp;tr=udp%3A%2F%2Ftracker.openbittorrent.com%3A80&amp;tr=udp%3A%2F%2Fopen.demonii.com%3A1337&amp;tr=udp%3A%2F%2Ftracker.coppersurfer.tk%3A6969&amp;tr=udp%3A%2F%2Fexodus.desync.com%3A6969","seeders":3,"leechers":0,"uploader":"Kuthumi","files":-1,"time":1218468706,"description":"Optional Swedish subtitles in separate idx/sub files. &lt;a href=&quot;\nhttp://www.imdb.com/title/tt0109198/&quot; rel=&quot;nofollow&quot; target=&quot;_NEW&quot;&gt;\nhttp://www.imdb.com/title/tt0109198/&lt;/a&gt;\n\nWith Mary Stuart Masterson (Benny &amp; Joon), Andie MacDowell (Four Weddings and a Funeral), Drew Barrymore (Charlie's Angels).\n\nMadeleine Stowe and the other girls in unusal performances as riding prostitutes in the old Wild West. Great music by Jerry Goldsmith.\n\nIt has puzzled me that this great film is only available as old vhs rips on the torrent sites, so I bought a new DVD and made this quality rip.\n\nWidescreen, great stereo sound AC3.\nDVDrip XviD 2-pass 704x384.\n\nBurn tested, runs well in both my standalone DivX players.\n\nFormat/Info                      : Audio Video Interleave\nFile size                        : 697 MiB\nDuration                         : 1h 36mn\nOveral bit rate                  : 1014 Kbps\nVideo\nFormat                           : MPEG-4 Visual\nFormat profile                   : Streaming Video@L1\nFormat settings, BVOP            : Yes\nFormat settings, QPel            : No\nFormat settings, GMC             : No warppoints\nFormat settings, Matrix          : Default\nMuxing mode                      : Packet Bitstream\nCodec ID                         : XVID\nCodec ID/Hint                    : XviD\nDuration                         : 1h 36mn\nBit rate                         : 877 Kbps\nWidth                            : 704 pixels\nHeight                           : 384 pixels\nDisplay aspect ratio             : 16/9\nFrame rate                       : 25.000 fps\nResolution                       : 8 bits\nColorimetry                      : 4:2:0\nScan type                        : Progressive\nBits/(Pixel*Frame)               : 0.130\nStream size                      : 602 MiB\nWriting library                  : XviD 1.2.0.dev47 (UTC 2006-11-01)\n\nAudio\nFormat                           : MPEG Audio\nFormat version                   : Version 1\nFormat profile                   : Layer 3\nCodec ID                         : 55\nCodec ID/Hint                    : MP3\nDuration                         : 1h 36mn\nBit rate mode                    : Constant\nBit rate                         : 128 Kbps\nMinimum bit rate                 : 128 Kbps\nChannel(s)                       : 2 channels\nSampling rate                    : 48.0 KHz\nResolution                       : 16 bits\nStream size                      : 88.0 MiB\nWriting library                  : LAME3.97 \nEncoding settings                : CBR\n\nSource: PAL retail 5.4 GiB (note that PAL/NTSC will give no problems for avi files)\n","torrent":{"xt":"urn:btih:527240af6d3ae7c7e8b0e6fd4b6d7244cb9d8699","amp;dn":"Bad+Girls+%281994%29+Madeleine+Stowe+%28Quality+DVDrip%29%5Bopt.SWESUBS%5D","amp;tr":["udp%3A%2F%2Ftracker.openbittorrent.com%3A80","udp%3A%2F%2Fopen.demonii.com%3A1337","udp%3A%2F%2Ftracker.coppersurfer.tk%3A6969","udp%3A%2F%2Fexodus.desync.com%3A6969"],"infoHash":"527240af6d3ae7c7e8b0e6fd4b6d7244cb9d8699","infoHashBuffer":{"type":"Buffer","data":[82,114,64,175,109,58,231,199,232,176,230,253,75,109,114,68,203,157,134,153]},"announce":[],"urlList":[]}}